<?xml version="1.0" encoding="UTF-8"?>
<svg id="_イヤー_1" xmlns="http://www.w3.org/2000/svg" version="1.1" viewBox="0 0 332.7 332.7">
  <!-- Generator: Adobe Illustrator 30.2.1, SVG Export Plug-In . SVG Version: 2.1.1 Build 1)  -->
  <defs>
    <style>
      .st0 {
        fill: #fff;
      }

      .st0, .st1 {
        fill-rule: evenodd;
      }

      .st2 {
        fill: none;
      }

      .st1, .st3 {
        fill: #0078d4;
      }
    </style>
  </defs>
  <path class="st1" d="M131.7,109.4h0l27.2-15.7c3.6-2.1,5.6-5.6,5.6-9.7v-1.4c0-4.3-2.2-7.9-6-9.9-8-4.2-13.4-12.5-13.4-22.2,0-13.8,11.2-25,25-25s25,11.2,25,25c0,9.6-5.4,18-13.4,22.2-3.8,2-6,5.7-6,9.9v1.4c0,4.1,2,7.7,5.6,9.7l27.1,15.6c.1.1.2.2.4.2l34.3,19.8c.5.3,1,.6,1.4,1h0l.1.1.1.1h0l.1.1h0c.5.6.9,1.2,1.2,1.8.4.9.6,1.8.6,2.8h0v.1h0v65.8c0,6.7,3.3,12.4,9.1,15.8l.5.3c5.8,3.3,12.4,3.4,18.1.1,4.6-2.6,9.9-4.1,15.6-4.1,17.4,0,31.6,14.1,31.6,31.6s-14.1,31.6-31.6,31.6-31.4-14-31.6-31.3c0-6.6-3.4-12.3-9.1-15.7l-.5-.3c-5.8-3.4-12.4-3.4-18.2,0l-22.1,12.8h0l-34.4,19.9c-1.1.8-2.5,1.2-3.9,1.2s-2.8-.4-3.9-1.2l-34.4-19.9c-.1-.1-.2-.1-.4-.2l-34.4-19.9c-2.2-1.3-3.5-3.6-3.5-6h0v-65c0-7.2-3.6-13.4-9.8-17l-.4-.2c-6.3-3.6-13.6-3.6-19.9.1-5.2,3.1-11.3,4.9-17.8,4.9-19.2,0-34.8-15.6-34.8-34.8,0-19.2,15.5-34.8,34.8-34.8s34.8,15.6,34.8,34.8v.4c-.1,7.3,3.5,13.6,9.8,17.2l.5.3c6.2,3.6,13.4,3.6,19.6,0l21.4-12.3h0ZM177,179.6v64.3l55.6-32.1v-64.3h0l-55.6,32.1h0ZM170,167.7l55.8-32.3-55.8-32.1-55.7,32.2h0l55.7,32.2,55.7-32.2-55.7,32.2ZM96.7,289.9c9.3-10.2,8.6-26.1-1.6-35.5-10.2-9.3-26.1-8.6-35.5,1.6-9.3,10.2-8.6,26.1,1.6,35.5,10.3,9.4,26.2,8.7,35.5-1.6h0Z"/>
  <path class="st0" d="M21.7,122.5c-8.5-11.2-7.4-27,2.6-37,10-10,25.9-10.9,37-2.2-11.2-4.1-23.7-1.3-32.2,7.1s-11.3,20.9-7.4,32.1Z"/>
  <path class="st0" d="M98.9,278.5c-3.5,9.6-13.5,15-23.5,12.8s-16.7-11.5-15.7-21.6c1.9,8.4,8.4,14.9,16.8,16.8,8.4,1.9,17.1-1.2,22.4-8h0Z"/>
  <path class="st0" d="M159.8,33.7c9.4-3.9,20.2-.1,25.2,8.7s2.7,20-5.4,26.1c4.9-7,5.3-16.2,1.1-23.7s-12.3-11.8-20.9-11.1h0Z"/>
  <path class="st0" d="M280.6,220.4c11.8-4.9,25.5-.2,31.8,11,6.3,11.1,3.5,25.2-6.8,32.9,6.2-8.9,6.7-20.5,1.4-29.9s-15.6-14.9-26.4-14h0Z"/>
  <path class="st3" d="M297.2,93.3c-2.6-7.7-11-11.8-18.7-9.2-7.7,2.6-11.8,11-9.2,18.7.4,1.2,1,2.4,1.7,3.4-1.4-3.9-.6-8.5,2.3-11.8,4-4.5,10.6-5.3,15.6-1.9-4.8-1.4-10,.1-13.4,3.9-2.9,3.3-3.9,7.7-2.9,11.9,3.8,4,9.7,5.7,15.3,3.8,7.8-2.7,11.9-11.1,9.3-18.8h0Z"/>
  <rect class="st2" y="0" width="332.7" height="332.7"/>
</svg>