<?xml version="1.0" encoding="UTF-8"?>
<svg id="_レイヤー_1" xmlns="http://www.w3.org/2000/svg" version="1.1" xmlns:serif="http://www.serif.com/" viewBox="0 0 108 108">
  <!-- Generator: Adobe Illustrator 30.2.1, SVG Export Plug-In . SVG Version: 2.1.1 Build 1)  -->
  <defs>
    <style>
      .st0, .st1 {
        fill: #fff;
      }

      .st1 {
        fill-rule: evenodd;
      }

      .st2 {
        fill: none;
      }
    </style>
  </defs>
  <g>
    <path class="st1" d="M41.28,69.27c-1.97-1.8-5.04-1.66-6.86.31-1.8,1.97-1.66,5.04.31,6.86,1.99,1.82,5.06,1.68,6.86-.31,1.8-1.97,1.66-5.04-.31-6.86ZM37.47,76.39c-1.93-.42-3.23-2.22-3.03-4.17.37,1.62,1.62,2.88,3.25,3.25,1.62.37,3.3-.23,4.33-1.55-.68,1.85-2.61,2.9-4.54,2.47Z"/>
    <path class="st1" d="M78.9,61.31c-1.1,0-2.12.29-3.01.79-1.1.64-2.38.62-3.5-.02l-.1-.06c-1.12-.66-1.76-1.76-1.76-3.05v-12.73c0-.19-.04-.37-.12-.54-.06-.12-.14-.23-.23-.35l-.02-.02-.02-.02-.02-.02c-.08-.08-.17-.14-.27-.19l-6.63-3.82s-.06-.02-.08-.04l-5.23-3.01c-.7-.39-1.08-1.08-1.08-1.87v-.27c0-.81.42-1.53,1.16-1.91,1.55-.81,2.59-2.43,2.59-4.29,0-2.67-2.16-4.83-4.83-4.83s-4.83,2.16-4.83,4.83c0,1.87,1.04,3.48,2.59,4.29.73.39,1.16,1.08,1.16,1.91v.27c0,.79-.39,1.47-1.08,1.87l-5.25,3.03h0l-4.13,2.38c-1.2.7-2.59.7-3.79,0l-.1-.06c-1.22-.7-1.91-1.91-1.89-3.32v-.08c0-3.71-2.99-6.72-6.72-6.72s-6.72,3.01-6.72,6.72,3.01,6.72,6.72,6.72c1.26,0,2.43-.35,3.44-.95,1.22-.71,2.63-.71,3.84-.02l.08.04c1.2.7,1.89,1.89,1.89,3.28v12.56c0,.46.25.91.68,1.16l6.64,3.84s.06.02.08.04l6.64,3.84c.21.15.48.23.75.23s.54-.08.75-.23l6.64-3.84,4.27-2.47c1.12-.66,2.4-.66,3.52,0l.1.06c1.1.66,1.76,1.76,1.76,3.03.04,3.34,2.72,6.05,6.1,6.05s6.1-2.72,6.1-6.1-2.74-6.1-6.1-6.1ZM28.53,37.59c-1.64,1.62-2.18,4.04-1.43,6.2-1.64-2.16-1.43-5.22.5-7.15,1.93-1.93,5-2.11,7.15-.42-2.16-.79-4.58-.25-6.22,1.37ZM53.77,26.63c1.82-.75,3.9-.02,4.87,1.68.97,1.7.52,3.86-1.04,5.04.95-1.35,1.02-3.13.21-4.58-.81-1.45-2.38-2.28-4.04-2.14ZM55.74,52.52h0l-10.76-6.22,10.76-6.22,10.78,6.2-10.78,6.24ZM67.84,61.04l-10.74,6.2v-12.42l10.74-6.2v12.42ZM81.94,71.18c1.2-1.72,1.29-3.96.27-5.78-1.02-1.82-3.01-2.88-5.1-2.7,2.28-.95,4.93-.04,6.14,2.12,1.22,2.14.68,4.87-1.31,6.36Z"/>
    <path class="st0" d="M80.33,38.15c-.5-1.49-2.12-2.28-3.61-1.78-1.49.5-2.28,2.12-1.78,3.61.08.23.19.46.33.66-.27-.75-.12-1.64.44-2.28.77-.87,2.05-1.02,3.01-.37-.93-.27-1.93.02-2.59.75-.56.64-.75,1.49-.56,2.3.73.77,1.87,1.1,2.96.73,1.51-.52,2.28-2.14,1.8-3.63h0Z"/>
  </g>
  <rect class="st2" x="-111.4" y="-157.2" width="332.7" height="332.7"/>
</svg>