<?xml version="1.0" encoding="UTF-8"?>
<svg id="_レイヤー_1" xmlns="http://www.w3.org/2000/svg" version="1.1" xmlns:serif="http://www.serif.com/" viewBox="0 0 456 456">
  <!-- Generator: Adobe Illustrator 30.2.1, SVG Export Plug-In . SVG Version: 2.1.1 Build 1)  -->
  <defs>
    <style>
      .st0, .st1 {
        fill: #fff;
      }

      .st1 {
        fill-rule: evenodd;
      }

      .st2 {
        fill: none;
      }

      .st3 {
        isolation: isolate;
      }
    </style>
  </defs>
  <path class="st1" d="M194.3,126.2h0l27.2-15.7c3.6-2.1,5.6-5.6,5.6-9.7v-1.4c0-4.3-2.2-7.9-6-9.9-8-4.2-13.4-12.5-13.4-22.2,0-13.8,11.2-25,25-25s25,11.2,25,25c0,9.6-5.4,18-13.4,22.2-3.8,2-6,5.7-6,9.9v1.4c0,4.1,2,7.7,5.6,9.7l27.1,15.6c.1.1.2.2.4.2l34.3,19.8c.5.3,1,.6,1.4,1h0l.1.1.1.1h0l.1.1h0c.5.6.9,1.2,1.2,1.8.4.9.6,1.8.6,2.8h0v.1h0v65.8c0,6.7,3.3,12.4,9.1,15.8l.5.3c5.8,3.3,12.4,3.4,18.1.1,4.6-2.6,9.9-4.1,15.6-4.1,17.4,0,31.6,14.1,31.6,31.6s-14.1,31.6-31.6,31.6-31.4-14-31.6-31.3c0-6.6-3.4-12.3-9.1-15.7l-.5-.3c-5.8-3.4-12.4-3.4-18.2,0l-22.1,12.8h0l-34.4,19.9c-1.1.8-2.5,1.2-3.9,1.2s-2.8-.4-3.9-1.2l-34.4-19.9c-.1-.1-.2-.1-.4-.2l-34.4-19.9c-2.2-1.3-3.5-3.6-3.5-6h0v-65c0-7.2-3.6-13.4-9.8-17l-.4-.2c-6.3-3.6-13.6-3.6-19.9.1-5.2,3.1-11.3,4.9-17.8,4.9-19.2,0-34.8-15.6-34.8-34.8s15.5-34.8,34.8-34.8,34.8,15.6,34.8,34.8v.4c-.1,7.3,3.5,13.6,9.8,17.2l.5.3c6.2,3.6,13.4,3.6,19.6,0l21.4-12.3h0ZM239.6,196.4v64.3l55.6-32.1v-64.3h0l-55.6,32.1h0ZM232.6,184.5l55.8-32.3-55.8-32.1-55.7,32.2h0l55.7,32.2,55.7-32.2-55.7,32.2h0ZM159.3,306.7c9.3-10.2,8.6-26.1-1.6-35.5-10.2-9.3-26.1-8.6-35.5,1.6-9.3,10.2-8.6,26.1,1.6,35.5,10.3,9.4,26.2,8.7,35.5-1.6h0Z"/>
  <path class="st1" d="M84.3,139.3c-8.5-11.2-7.4-27,2.6-37s25.9-10.9,37-2.2c-11.2-4.1-23.7-1.3-32.2,7.1s-11.3,20.9-7.4,32.1Z"/>
  <path class="st1" d="M161.5,295.3c-3.5,9.6-13.5,15-23.5,12.8s-16.7-11.5-15.7-21.6c1.9,8.4,8.4,14.9,16.8,16.8,8.4,1.9,17.1-1.2,22.4-8h0Z"/>
  <path class="st1" d="M222.4,50.5c9.4-3.9,20.2-.1,25.2,8.7s2.7,20-5.4,26.1c4.9-7,5.3-16.2,1.1-23.7s-12.3-11.8-20.9-11.1h0Z"/>
  <path class="st1" d="M343.2,237.2c11.8-4.9,25.5-.2,31.8,11,6.3,11.1,3.5,25.2-6.8,32.9,6.2-8.9,6.7-20.5,1.4-29.9s-15.6-14.9-26.4-14h0Z"/>
  <path class="st0" d="M359.9,110.1c-2.6-7.7-11-11.8-18.7-9.2-7.7,2.6-11.8,11-9.2,18.7.4,1.2,1,2.4,1.7,3.4-1.4-3.9-.6-8.5,2.3-11.8,4-4.5,10.6-5.3,15.6-1.9-4.8-1.4-10,.1-13.4,3.9-2.9,3.3-3.9,7.7-2.9,11.9,3.8,4,9.7,5.7,15.3,3.8,7.8-2.7,11.8-11.1,9.3-18.8h0Z"/>
  <rect class="st2" x="62.6" y="16.8" width="332.7" height="332.7"/>
  <g class="st3">
    <g class="st3">
      <g>
        <path class="st0" d="M24.71,395.39v21.37h28.7v-11.02c0-.89.17-1.53.51-1.91.34-.38.79-.58,1.35-.58s1.01.19,1.35.58c.34.38.51,1.02.51,1.91v14.75H15.96c-.89,0-1.53-.18-1.91-.53-.39-.36-.58-.8-.58-1.33,0-.56.19-1.01.58-1.36.38-.34,1.02-.51,1.91-.51h5.02v-44.52h-5.02c-.89,0-1.53-.17-1.91-.51-.39-.34-.58-.79-.58-1.36s.19-1.01.58-1.36c.38-.34,1.02-.51,1.91-.51h39.23v12.84c0,.89-.17,1.53-.51,1.91-.34.39-.79.58-1.35.58s-1.02-.19-1.35-.58c-.34-.38-.51-1.02-.51-1.91v-9.11h-26.75v19.42h13.37v-4.22c0-.89.18-1.53.53-1.91s.81-.58,1.38-.58c.53,0,.98.19,1.33.58s.53,1.02.53,1.91v12.17c0,.89-.18,1.53-.53,1.91s-.8.58-1.33.58c-.56,0-1.02-.19-1.38-.58s-.53-1.02-.53-1.91v-4.22h-13.37Z"/>
        <path class="st0" d="M110.51,392.11v5.33h-38.08v-5.33h38.08Z"/>
        <path class="st0" d="M159.43,372.25v-1.24c0-.89.17-1.53.51-1.91.34-.38.79-.58,1.35-.58s1.01.19,1.35.58c.34.39.51,1.02.51,1.91v9.51c0,.89-.17,1.53-.51,1.91-.34.39-.79.58-1.35.58-.53,0-.97-.18-1.31-.53-.34-.36-.53-.93-.56-1.73-.15-2.49-1.43-4.72-3.84-6.71-2.42-1.98-5.58-2.98-9.49-2.98-4.12,0-7.39,1.06-9.82,3.18-2.43,2.12-3.64,4.61-3.64,7.49,0,1.48.34,2.83,1.02,4.04.68,1.21,1.58,2.2,2.71,2.96,1.13.75,2.4,1.36,3.82,1.82,1.42.46,3.64.94,6.67,1.44,5.07.83,8.56,1.67,10.49,2.53,2.58,1.16,4.52,2.76,5.84,4.8,1.32,2.04,1.98,4.46,1.98,7.24,0,4.27-1.7,7.9-5.11,10.91-3.41,3.01-8,4.51-13.77,4.51-6.49,0-11.67-2.03-15.55-6.09v2.13c0,.89-.17,1.53-.51,1.91-.34.39-.79.58-1.35.58-.53,0-.98-.19-1.33-.58-.36-.38-.53-1.02-.53-1.91v-10.31c0-.92.17-1.57.51-1.96.34-.38.79-.58,1.35-.58.53,0,.97.18,1.31.53.34.36.53.93.56,1.73.15,2.73,1.61,5.21,4.38,7.44,2.77,2.24,6.49,3.36,11.18,3.36s8.38-1.17,11.09-3.51c2.71-2.34,4.07-5.11,4.07-8.31,0-1.96-.52-3.69-1.56-5.22-1.04-1.53-2.58-2.73-4.62-3.62-1.42-.62-4.38-1.32-8.89-2.09-6.19-1.04-10.65-2.62-13.37-4.75-2.73-2.13-4.09-5.17-4.09-9.11s1.56-7.27,4.69-10.09c3.12-2.81,7.25-4.22,12.38-4.22s9.7,1.64,13.46,4.93Z"/>
        <path class="st0" d="M220.89,402.15h-38.04c.65,4.83,2.67,8.72,6.06,11.66,3.39,2.95,7.59,4.42,12.6,4.42,2.78,0,5.7-.46,8.75-1.38,3.05-.92,5.54-2.13,7.46-3.64.56-.44,1.05-.67,1.47-.67.47,0,.89.18,1.24.55.36.37.53.81.53,1.31s-.24.99-.71,1.47c-1.42,1.48-3.95,2.87-7.58,4.15-3.63,1.29-7.35,1.93-11.18,1.93-6.4,0-11.74-2.1-16.02-6.29-4.28-4.19-6.42-9.26-6.42-15.22,0-5.42,2.01-10.07,6.02-13.95,4.01-3.88,8.98-5.82,14.91-5.82s11.12,1.99,15.06,5.98c3.94,3.98,5.88,9.15,5.82,15.48ZM217.11,398.37c-.74-4.12-2.69-7.46-5.84-10.04-3.16-2.58-6.91-3.87-11.26-3.87s-8.1,1.27-11.24,3.82c-3.14,2.55-5.1,5.91-5.87,10.09h34.21Z"/>
        <path class="st0" d="M243.24,382.02v5.64c2.61-2.64,4.96-4.46,7.06-5.47,2.1-1.01,4.47-1.51,7.11-1.51,2.84,0,5.44.61,7.78,1.82,1.66.89,3.16,2.36,4.51,4.42,1.35,2.06,2.02,4.17,2.02,6.33v23.51h3.16c.89,0,1.53.17,1.91.51.38.34.58.79.58,1.36,0,.53-.19.98-.58,1.33s-1.02.53-1.91.53h-10c-.92,0-1.57-.18-1.96-.53s-.58-.8-.58-1.33c0-.56.19-1.01.58-1.36.38-.34,1.04-.51,1.96-.51h3.11v-22.88c0-2.64-.96-4.87-2.89-6.69-1.93-1.82-4.5-2.73-7.73-2.73-2.46,0-4.59.5-6.4,1.49-1.81.99-4.38,3.46-7.73,7.4v23.42h4.22c.89,0,1.53.17,1.91.51.38.34.58.79.58,1.36,0,.53-.19.98-.58,1.33-.39.36-1.02.53-1.91.53h-12.17c-.89,0-1.53-.18-1.91-.53-.39-.36-.58-.8-.58-1.33,0-.56.19-1.01.58-1.36.38-.34,1.02-.51,1.91-.51h4.22v-30.97h-3.16c-.89,0-1.53-.18-1.91-.53-.39-.36-.58-.81-.58-1.38,0-.53.19-.98.58-1.33.38-.36,1.02-.53,1.91-.53h6.89Z"/>
        <path class="st0" d="M322.24,384.47c0-.86.18-1.48.53-1.87.36-.38.8-.58,1.33-.58.56,0,1.02.19,1.38.58.36.39.53,1.04.53,1.96v6.4c0,.89-.18,1.53-.53,1.91-.36.39-.81.58-1.38.58-.5,0-.93-.16-1.27-.49-.34-.33-.54-.86-.6-1.6-.18-1.78-1.1-3.24-2.75-4.4-2.43-1.66-5.64-2.49-9.64-2.49s-7.42.84-9.73,2.53c-1.75,1.27-2.62,2.7-2.62,4.27,0,1.78,1.04,3.26,3.11,4.44,1.42.83,4.12,1.47,8.09,1.91,5.18.56,8.78,1.2,10.8,1.91,2.87,1.04,5.01,2.47,6.42,4.31,1.41,1.84,2.11,3.82,2.11,5.95,0,3.17-1.53,5.99-4.58,8.46-3.05,2.47-7.52,3.71-13.42,3.71s-10.72-1.5-14.49-4.49c0,1.01-.06,1.66-.18,1.96-.12.3-.33.55-.64.76-.31.21-.66.31-1.04.31-.53,0-.98-.19-1.33-.58-.36-.38-.53-1.02-.53-1.91v-7.69c0-.89.17-1.52.51-1.91.34-.38.79-.58,1.35-.58.53,0,.98.19,1.36.56.37.37.56.87.56,1.49,0,1.36.34,2.5,1.02,3.42,1.04,1.42,2.69,2.6,4.96,3.53,2.27.93,5.04,1.4,8.33,1.4,4.86,0,8.47-.9,10.84-2.71,2.37-1.81,3.55-3.72,3.55-5.73,0-2.31-1.2-4.16-3.6-5.55-2.43-1.39-5.96-2.33-10.6-2.8-4.64-.47-7.96-1.09-9.98-1.87-2.01-.77-3.58-1.93-4.71-3.47-1.13-1.54-1.69-3.2-1.69-4.98,0-3.2,1.57-5.74,4.71-7.62,3.14-1.88,6.89-2.82,11.24-2.82,5.15,0,9.35,1.26,12.58,3.78Z"/>
        <path class="st0" d="M385.38,401.35c0,5.69-2.04,10.55-6.11,14.57-4.07,4.03-8.98,6.04-14.73,6.04s-10.74-2.02-14.8-6.07c-4.06-4.04-6.09-8.89-6.09-14.55s2.03-10.55,6.09-14.6c4.06-4.04,8.99-6.07,14.8-6.07s10.66,2.01,14.73,6.04c4.07,4.03,6.11,8.9,6.11,14.62ZM381.6,401.35c0-4.68-1.67-8.67-5-11.95-3.33-3.29-7.37-4.93-12.11-4.93s-8.78,1.65-12.11,4.95c-3.33,3.3-5,7.28-5,11.93s1.67,8.59,5,11.91c3.33,3.32,7.37,4.98,12.11,4.98s8.78-1.65,12.11-4.96c3.33-3.3,5-7.28,5-11.93Z"/>
        <path class="st0" d="M414.66,382.02v9.42c4.86-4.38,8.49-7.21,10.91-8.46,2.41-1.26,4.64-1.89,6.69-1.89,2.22,0,4.29.75,6.2,2.24,1.91,1.5,2.87,2.63,2.87,3.4,0,.56-.19,1.03-.56,1.4-.37.37-.84.56-1.4.56-.3,0-.55-.05-.76-.16s-.59-.44-1.16-1c-1.04-1.04-1.94-1.75-2.71-2.13-.77-.38-1.53-.58-2.27-.58-1.63,0-3.59.65-5.89,1.96-2.3,1.3-6.27,4.49-11.93,9.55v20.44h16.53c.92,0,1.57.17,1.96.51.38.34.58.79.58,1.36,0,.53-.19.98-.58,1.33-.39.36-1.04.53-1.96.53h-29.28c-.89,0-1.53-.17-1.91-.51-.39-.34-.58-.78-.58-1.31,0-.5.18-.92.56-1.27.37-.34,1.01-.51,1.93-.51h9.02v-31.1h-6.89c-.89,0-1.53-.18-1.91-.53-.39-.36-.58-.81-.58-1.38,0-.53.18-.98.56-1.33.37-.36,1.01-.53,1.93-.53h10.62Z"/>
      </g>
    </g>
  </g>
</svg>